<svg width="21" height="20" viewBox="0 0 21 20" fill="none" xmlns="http://www.w3.org/2000/svg">
<path fill-rule="evenodd" clip-rule="evenodd" d="M6.5 4H4.5V3H2.5V6H18.5V3H16.5V4H14.5V3H6.5V4ZM18.5 8H2.5V18H18.5V8ZM14.5 1H6.5V0H4.5V1H2.5C1.39543 1 0.5 1.89543 0.5 3V18C0.5 19.1046 1.39543 20 2.5 20H18.5C19.6046 20 20.5 19.1046 20.5 18V3C20.5 1.89543 19.6046 1 18.5 1H16.5V0H14.5V1ZM5.5 12V10H7.5V12H5.5ZM9.5 12H11.5V10H9.5V12ZM13.5 12V10H15.5V12H13.5ZM5.5 14V16H7.5V14H5.5ZM11.5 16H9.5V14H11.5V16Z" fill="#2B4CF9"/>
</svg>