<svg width="25" height="26" viewBox="0 0 25 26" fill="none" xmlns="http://www.w3.org/2000/svg">
    <path d="M20.4995 16.9999C20.4995 17.3507 20.4009 17.6759 20.2428 17.962L15.191 12.3097L20.188 7.93765C20.3824 8.24614 20.4995 8.60851 20.4995 9.00009V16.9999ZM12.4995 13.336L19.4528 7.252C19.1675 7.09579 18.8462 7 18.4996 7H6.4995C6.15247 7 5.83106 7.09579 5.54688 7.252L12.4995 13.336ZM14.4381 12.9679L12.8286 14.3771C12.7344 14.4591 12.6172 14.5 12.4995 14.5C12.3818 14.5 12.2646 14.4591 12.1704 14.3771L10.5606 12.9678L5.44482 18.6924C5.75145 18.8848 6.11082 19 6.49947 19H18.4996C18.8881 19 19.2477 18.8848 19.5542 18.6924L14.4381 12.9679ZM4.81106 7.93762C4.61671 8.24611 4.49951 8.60847 4.49951 9.00009V17C4.49951 17.3507 4.59771 17.6759 4.75636 17.962L9.80762 12.3087L4.81106 7.93762Z" fill="#929AA2"/>
</svg>