<svg width="25" height="26" viewBox="0 0 25 26" fill="none" xmlns="http://www.w3.org/2000/svg">
    <path d="M21.875 8.83333H20.3125V6.45238C20.3125 3.16667 16.8125 0.5 12.5 0.5C8.1875 0.5 4.6875 3.16667 4.6875 6.45238V8.83333H3.125C1.40625 8.83333 0 9.90476 0 11.2143V23.119C0 24.4286 1.40625 25.5 3.125 25.5H21.875C23.5938 25.5 25 24.4286 25 23.119V11.2143C25 9.90476 23.5938 8.83333 21.875 8.83333ZM12.5 19.5476C10.7812 19.5476 9.375 18.4762 9.375 17.1667C9.375 15.8571 10.7812 14.7857 12.5 14.7857C14.2188 14.7857 15.625 15.8571 15.625 17.1667C15.625 18.4762 14.2188 19.5476 12.5 19.5476ZM17.3438 8.83333H7.65625V6.45238C7.65625 4.41667 9.82812 2.7619 12.5 2.7619C15.1719 2.7619 17.3438 4.41667 17.3438 6.45238V8.83333Z" fill="#4C4F52"/>
</svg>