<svg width="25" height="25" viewBox="0 0 25 25" fill="none" xmlns="http://www.w3.org/2000/svg">
    <path d="M17.2744 14.258C16.7685 13.7585 16.1368 13.7585 15.6341 14.258C15.2506 14.6383 14.8671 15.0186 14.4901 15.4053C14.3869 15.5116 14.2999 15.5342 14.1742 15.4633C13.9261 15.3279 13.6618 15.2184 13.4234 15.0701C12.3115 14.3708 11.3802 13.4717 10.5552 12.4598C10.1459 11.957 9.78174 11.4188 9.52715 10.813C9.47559 10.6905 9.48526 10.6099 9.58516 10.51C9.96866 10.1394 10.3425 9.75916 10.7195 9.37888C11.2448 8.85037 11.2448 8.23161 10.7163 7.69987C10.4166 7.39694 10.1169 7.10046 9.81719 6.79753C9.50782 6.48815 9.20166 6.17555 8.88907 5.8694C8.38311 5.37633 7.75146 5.37633 7.24873 5.87262C6.86201 6.2529 6.4914 6.64284 6.09824 7.01667C5.73408 7.36149 5.55038 7.78366 5.51171 8.27673C5.45048 9.07918 5.64706 9.8365 5.92421 10.5745C6.4914 12.102 7.35508 13.4588 8.40244 14.7027C9.81719 16.385 11.5059 17.7159 13.4814 18.6763C14.3708 19.1081 15.2925 19.4401 16.2948 19.4948C16.9844 19.5335 17.5838 19.3595 18.064 18.8213C18.3927 18.4539 18.7633 18.1188 19.1114 17.7675C19.627 17.2454 19.6302 16.6138 19.1178 16.0981C18.5055 15.4826 17.89 14.8703 17.2744 14.258Z" fill="#929AA2"/>
</svg>