<svg width="41" height="28" viewBox="0 0 41 28" fill="none" xmlns="http://www.w3.org/2000/svg">
    <path d="M9.28049 9.99024C14.1083 9.99024 18.022 13.904 18.022 18.7317C18.022 23.5594 14.1083 27.4732 9.28049 27.4732C4.4527 27.4732 0.539024 23.5594 0.539024 18.7317L0.5 17.4829C0.5 7.82736 8.32736 0 17.9829 0V4.99512C14.6474 4.99512 11.5114 6.29409 9.15272 8.65272C8.69871 9.10681 8.28435 9.58993 7.91058 10.0974C8.35694 10.0272 8.81438 9.99024 9.28049 9.99024ZM31.7585 9.99024C36.5862 9.99024 40.5 13.904 40.5 18.7317C40.5 23.5594 36.5862 27.4732 31.7585 27.4732C26.9308 27.4732 23.0171 23.5594 23.0171 18.7317L22.978 17.4829C22.978 7.82736 30.8053 0 40.461 0V4.99512C37.1255 4.99512 33.9893 6.29409 31.6308 8.65272C31.1767 9.10681 30.7623 9.58993 30.3885 10.0974C30.8349 10.0272 31.2924 9.99024 31.7585 9.99024Z" fill="#ff685a"/>
</svg>